<svg width="19" height="21" viewBox="0 0 19 21" fill="none" xmlns="http://www.w3.org/2000/svg">
<path d="M11.8931 0.446434L10.5568 1.08421C10.0409 1.33039 9.81433 1.98619 10.0516 2.5462L10.1416 2.7586C9.14404 2.69748 6.97745 2.79241 3.99202 4.21719L3.13675 4.62537C1.89768 5.21671 1.25339 6.68093 1.60493 8.10663L2.60454 12.1644C2.81837 13.03 3.36981 13.7506 4.11713 14.1432C4.86342 14.535 5.72238 14.5541 6.47234 14.1962L8.89703 13.039C8.93263 13.5522 9.05381 14.2674 9.39363 15.0694C10.3174 17.2497 11.6981 17.2836 12.2989 16.9968C13.4086 16.4672 13.0256 15.2993 12.5795 14.2466C12.0351 12.9618 12.9099 11.2606 13.4096 10.4515C13.6677 10.959 14.2446 11.1846 14.7369 10.9496L16.0733 10.3118C16.5891 10.0657 16.8157 9.40984 16.5784 8.84983L13.2589 1.01555C13.0216 0.455544 12.4089 0.200255 11.8931 0.446434V0.446434ZM11.7777 14.6293C12.331 15.935 12.1273 16.0322 11.93 16.1263C11.5537 16.3059 10.7817 16.0702 10.1954 14.6868C9.65055 13.4008 9.78061 12.3913 9.78136 12.3839C9.80659 12.2114 9.74182 12.0358 9.6118 11.9276C9.48231 11.8192 9.30863 11.7961 9.16109 11.8665L6.1035 13.3257C5.59034 13.5706 5.00331 13.5577 4.49272 13.29C3.98135 13.022 3.60377 12.5282 3.45755 11.9359L2.45794 7.87814C2.21764 6.90306 2.65805 5.90102 3.50584 5.49642L4.36111 5.08825C7.99736 3.35217 10.3423 3.71767 10.5653 3.75848L12.9775 9.4514C12.6409 9.9204 10.8854 12.5233 11.7777 14.6293V14.6293ZM15.7766 9.2325C15.8105 9.31258 15.7782 9.40615 15.7044 9.44135L14.3681 10.0791C14.2943 10.1143 14.2069 10.0779 14.173 9.99782L10.8534 2.16354C10.82 2.08461 10.8529 1.98938 10.9256 1.95468L12.262 1.31691C12.3357 1.28171 12.4231 1.31813 12.4571 1.39821L15.7766 9.2325Z" fill="#F65656"/>
<rect width="10.0729" height="8.72429" rx="2" transform="matrix(0.929068 -0.37129 0.36552 0.930261 1.07361 6.02914)" fill="#F65656"/>
<rect width="2.83292" height="9.3135" rx="1.41646" transform="matrix(0.993228 -0.115991 0.114073 0.993495 8.84949 7.40118)" fill="#F65656"/>
<rect width="2.18462" height="9.08336" transform="matrix(0.914277 -0.406522 0.400332 0.915745 10.6057 1.88699)" fill="#F65656"/>
</svg>
