<svg width="19" height="21" viewBox="0 0 19 21" fill="none" xmlns="http://www.w3.org/2000/svg">
<path d="M5.43004 19.7094L6.92437 19.2204C7.50118 19.0317 7.82701 18.3758 7.65073 17.7583L7.58388 17.5241C8.6283 17.7211 10.9268 17.9109 14.2651 16.8186L15.2215 16.5057C16.607 16.0523 17.4805 14.6065 17.2982 13.068L16.7803 8.68952C16.6692 7.75541 16.1827 6.92803 15.4462 6.41756C14.7106 5.90817 13.8069 5.77355 12.9683 6.04794L10.257 6.93506C10.2873 6.39338 10.2541 5.629 10.0016 4.74463C9.31534 2.34046 7.86317 2.12081 7.19132 2.34063C5.95043 2.74664 6.20006 4.01955 6.53142 5.18037C6.93585 6.59715 5.78778 8.26021 5.15358 9.04006C4.9484 8.47467 4.36954 8.16169 3.81903 8.34182L2.3247 8.83075C1.74789 9.01948 1.42206 9.67534 1.59834 10.2929L4.06434 18.9318C4.24061 19.5493 4.85323 19.8981 5.43004 19.7094V19.7094ZM7.42802 4.88701C7.01702 3.44719 7.24476 3.37268 7.46532 3.30051C7.88612 3.16283 8.66954 3.51243 9.10502 5.03799C9.50981 6.45605 9.23904 7.49482 9.23728 7.50239C9.18784 7.6795 9.23294 7.87185 9.35582 8.00237C9.47809 8.13308 9.65828 8.18048 9.82325 8.1265L13.2423 7.00782C13.8161 6.82007 14.4338 6.91184 14.9371 7.26004C15.4411 7.60868 15.7742 8.1756 15.8501 8.81476L16.368 13.1933C16.4925 14.2454 15.8953 15.235 14.9473 15.5452L13.9909 15.8581C9.92475 17.1892 7.49896 16.494 7.26914 16.4215L5.47718 10.1439C5.89435 9.69818 8.09092 7.20927 7.42802 4.88701V4.88701ZM2.49493 9.9995C2.46973 9.91119 2.51621 9.81762 2.5987 9.79063L4.09303 9.3017C4.17552 9.27471 4.26292 9.32447 4.28813 9.41278L6.75413 18.0517C6.77898 18.1387 6.73166 18.234 6.65037 18.2606L5.15604 18.7495C5.07355 18.7765 4.98614 18.7267 4.96094 18.6384L2.49493 9.9995Z" fill="#2EBB34"/>
</svg>
