<svg width="103" height="54" viewBox="0 0 103 54" fill="none" xmlns="http://www.w3.org/2000/svg">
<path d="M19.1294 20.7783C19.061 22.2627 18.6606 23.5762 17.9282 24.7188C17.1958 25.8516 16.1655 26.7305 14.8374 27.3555C13.519 27.9805 12.0103 28.293 10.311 28.293C7.5083 28.293 5.30127 27.3799 3.68994 25.5537C2.07861 23.7275 1.27295 21.1494 1.27295 17.8193V16.7646C1.27295 14.6748 1.63428 12.8486 2.35693 11.2861C3.08936 9.71387 4.13916 8.50293 5.50635 7.65332C6.87354 6.79395 8.45557 6.36426 10.2524 6.36426C12.8403 6.36426 14.9204 7.04785 16.4927 8.41504C18.0649 9.77246 18.9585 11.6475 19.1733 14.04H14.0464C14.0073 12.7412 13.6802 11.8086 13.0649 11.2422C12.4497 10.6758 11.5122 10.3926 10.2524 10.3926C8.97314 10.3926 8.03564 10.8711 7.43994 11.8281C6.84424 12.7852 6.53174 14.3135 6.50244 16.4131V17.9219C6.50244 20.1973 6.78564 21.8232 7.35205 22.7998C7.92822 23.7764 8.91455 24.2646 10.311 24.2646C11.4927 24.2646 12.396 23.9863 13.021 23.4297C13.646 22.873 13.978 21.9893 14.0171 20.7783H19.1294ZM25.4429 28H21.3169V14.792H25.4429V28ZM21.0728 11.3862C21.0728 10.8003 21.2843 10.3201 21.7075 9.9458C22.1307 9.57145 22.68 9.38428 23.3555 9.38428C24.0309 9.38428 24.5802 9.57145 25.0034 9.9458C25.4266 10.3201 25.6382 10.8003 25.6382 11.3862C25.6382 11.9722 25.4266 12.4523 25.0034 12.8267C24.5802 13.201 24.0309 13.3882 23.3555 13.3882C22.68 13.3882 22.1307 13.201 21.7075 12.8267C21.2843 12.4523 21.0728 11.9722 21.0728 11.3862ZM31.7661 14.792L31.9004 16.3423C32.8118 15.146 34.0692 14.5479 35.6724 14.5479C37.0477 14.5479 38.0731 14.9588 38.7485 15.7808C39.4321 16.6027 39.7861 17.8397 39.8105 19.4917V28H35.6846V19.6626C35.6846 18.9953 35.5503 18.507 35.2817 18.1978C35.0132 17.8804 34.5249 17.7217 33.8169 17.7217C33.0112 17.7217 32.4131 18.0391 32.0225 18.6738V28H27.9087V14.792H31.7661ZM48.4897 28.2441C46.4634 28.2441 44.8236 27.6419 43.5703 26.4375C42.3171 25.2249 41.6904 23.6502 41.6904 21.7134V21.3716C41.6904 20.0207 41.9386 18.8285 42.4351 17.7949C42.9396 16.7614 43.672 15.9639 44.6323 15.4023C45.5926 14.8327 46.7319 14.5479 48.0503 14.5479C49.9058 14.5479 51.3706 15.1257 52.4448 16.2812C53.519 17.4287 54.0562 19.0319 54.0562 21.0908V22.6899H45.8774C46.0239 23.4305 46.3454 24.0124 46.8418 24.4355C47.3382 24.8587 47.9811 25.0703 48.7705 25.0703C50.0726 25.0703 51.0898 24.6146 51.8223 23.7031L53.7021 25.9248C53.1895 26.6328 52.4611 27.1984 51.5171 27.6216C50.5812 28.0366 49.5721 28.2441 48.4897 28.2441ZM48.0259 17.7217C46.8215 17.7217 46.1053 18.5192 45.8774 20.1143H50.0278V19.7969C50.0441 19.1377 49.8773 18.6291 49.5273 18.271C49.1774 17.9048 48.6769 17.7217 48.0259 17.7217ZM59.6104 14.792L59.7446 16.3423C60.6805 15.146 61.9378 14.5479 63.5166 14.5479C65.1849 14.5479 66.312 15.2111 66.8979 16.5376C67.7931 15.2111 69.0871 14.5479 70.7798 14.5479C73.4572 14.5479 74.8325 16.1673 74.9058 19.4062V28H70.7798V19.6626C70.7798 18.9871 70.6659 18.4948 70.438 18.1855C70.2101 17.8763 69.7951 17.7217 69.1929 17.7217C68.3791 17.7217 67.7728 18.0838 67.374 18.8081L67.3862 18.979V28H63.2603V19.687C63.2603 18.9953 63.1504 18.4948 62.9307 18.1855C62.7109 17.8763 62.2918 17.7217 61.6733 17.7217C60.884 17.7217 60.2817 18.0838 59.8667 18.8081V28H55.7529V14.792H59.6104ZM84.6958 28C84.5493 27.7314 84.4191 27.3368 84.3052 26.8159C83.5483 27.7681 82.4904 28.2441 81.1313 28.2441C79.8862 28.2441 78.8283 27.8698 77.9575 27.1211C77.0868 26.3643 76.6514 25.4162 76.6514 24.2769C76.6514 22.8446 77.1803 21.7622 78.2383 21.0298C79.2962 20.2974 80.8343 19.9312 82.8525 19.9312H84.1221V19.2354C84.1221 18.0228 83.5972 17.4165 82.5474 17.4165C81.5708 17.4165 81.0825 17.8966 81.0825 18.8569H76.9688C76.9688 17.5793 77.5099 16.5417 78.5923 15.7441C79.6828 14.9466 81.0703 14.5479 82.7549 14.5479C84.4395 14.5479 85.77 14.9588 86.7466 15.7808C87.7231 16.6027 88.2236 17.7298 88.248 19.1621V25.0093C88.2643 26.2218 88.4515 27.1496 88.8096 27.7925V28H84.6958ZM82.1201 25.3145C82.6328 25.3145 83.056 25.2046 83.3896 24.9849C83.7314 24.7651 83.9756 24.5169 84.1221 24.2402V22.1284H82.9258C81.4935 22.1284 80.7773 22.7713 80.7773 24.0571C80.7773 24.4315 80.9035 24.7367 81.1558 24.9727C81.408 25.2005 81.7295 25.3145 82.1201 25.3145ZM97.9526 17.917H102.115V21.4448H97.9526V26.2178H94.1074V21.4448H89.9326V17.917H94.1074V13.2783H97.9526V17.917Z" fill="#5671F6"/>
<rect y="35" width="103" height="19" rx="6" fill="#5671F6"/>
<path d="M14.3398 40.8926H11.7266V48H9.96875V40.8926H7.39062V39.4688H14.3398V40.8926ZM14.7852 48V41.6602H17.4336C18.2969 41.6602 18.959 41.8125 19.4199 42.1172C19.8809 42.4219 20.1113 42.8594 20.1113 43.4297C20.1113 43.7227 20.0137 43.9863 19.8184 44.2207C19.627 44.4512 19.3457 44.6289 18.9746 44.7539C19.4277 44.8398 19.7832 45.0098 20.041 45.2637C20.3027 45.5137 20.4336 45.8223 20.4336 46.1895C20.4336 46.7793 20.2109 47.2285 19.7656 47.5371C19.3242 47.8457 18.6816 48 17.8379 48H14.7852ZM16.4785 45.3691V46.6465H17.8438C18.4414 46.6465 18.7402 46.4375 18.7402 46.0195C18.7402 45.5938 18.4551 45.377 17.8848 45.3691H16.4785ZM16.4785 44.2324H17.5273C18.1211 44.2246 18.418 44.0332 18.418 43.6582C18.418 43.4277 18.3359 43.2637 18.1719 43.166C18.0117 43.0684 17.7656 43.0195 17.4336 43.0195H16.4785V44.2324ZM21.207 44.7715C21.207 44.1426 21.3281 43.582 21.5703 43.0898C21.8125 42.5977 22.1602 42.2168 22.6133 41.9473C23.0703 41.6777 23.5996 41.543 24.2012 41.543C25.0566 41.543 25.7539 41.8047 26.293 42.3281C26.8359 42.8516 27.1387 43.5625 27.2012 44.4609L27.2129 44.8945C27.2129 45.8672 26.9414 46.6484 26.3984 47.2383C25.8555 47.8242 25.127 48.1172 24.2129 48.1172C23.2988 48.1172 22.5684 47.8242 22.0215 47.2383C21.4785 46.6523 21.207 45.8555 21.207 44.8477V44.7715ZM22.9004 44.8945C22.9004 45.4961 23.0137 45.957 23.2402 46.2773C23.4668 46.5938 23.791 46.752 24.2129 46.752C24.623 46.752 24.9434 46.5957 25.1738 46.2832C25.4043 45.9668 25.5195 45.4629 25.5195 44.7715C25.5195 44.1816 25.4043 43.7246 25.1738 43.4004C24.9434 43.0762 24.6191 42.9141 24.2012 42.9141C23.7871 42.9141 23.4668 43.0762 23.2402 43.4004C23.0137 43.7207 22.9004 44.2188 22.9004 44.8945ZM32.0762 41.6602H33.7695V48H32.0762V44.0859L29.9551 48H28.2559V41.6602H29.9551V45.5684L32.0762 41.6602ZM33.0723 39.0879C33.0723 39.6074 32.8848 40.0273 32.5098 40.3477C32.1387 40.668 31.6504 40.8281 31.0449 40.8281C30.4395 40.8281 29.9492 40.6699 29.5742 40.3535C29.2031 40.0371 29.0176 39.6152 29.0176 39.0879H30.2188C30.2188 39.334 30.291 39.5254 30.4355 39.6621C30.584 39.7949 30.7871 39.8613 31.0449 39.8613C31.2988 39.8613 31.498 39.7949 31.6426 39.6621C31.7871 39.5254 31.8594 39.334 31.8594 39.0879H33.0723ZM40.5371 45.6621H39.8574V48H38.1641V41.6602H39.8574V44.0449H40.4609L41.8438 41.6602H43.9824L41.9082 44.6777L44.1758 48H41.9199L40.5371 45.6621ZM48.6348 41.6602H50.3281V48H48.6348V44.0859L46.5137 48H44.8145V41.6602H46.5137V45.5684L48.6348 41.6602ZM57.1191 48H55.4199V45.5625H53.3164V48H51.623V41.6602H53.3164V44.2031H55.4199V41.6602H57.1191V48ZM58.168 44.7715C58.168 44.1426 58.2891 43.582 58.5312 43.0898C58.7734 42.5977 59.1211 42.2168 59.5742 41.9473C60.0312 41.6777 60.5605 41.543 61.1621 41.543C62.0176 41.543 62.7148 41.8047 63.2539 42.3281C63.7969 42.8516 64.0996 43.5625 64.1621 44.4609L64.1738 44.8945C64.1738 45.8672 63.9023 46.6484 63.3594 47.2383C62.8164 47.8242 62.0879 48.1172 61.1738 48.1172C60.2598 48.1172 59.5293 47.8242 58.9824 47.2383C58.4395 46.6523 58.168 45.8555 58.168 44.8477V44.7715ZM59.8613 44.8945C59.8613 45.4961 59.9746 45.957 60.2012 46.2773C60.4277 46.5938 60.752 46.752 61.1738 46.752C61.584 46.752 61.9043 46.5957 62.1348 46.2832C62.3652 45.9668 62.4805 45.4629 62.4805 44.7715C62.4805 44.1816 62.3652 43.7246 62.1348 43.4004C61.9043 43.0762 61.5801 42.9141 61.1621 42.9141C60.748 42.9141 60.4277 43.0762 60.2012 43.4004C59.9746 43.7207 59.8613 44.2188 59.8613 44.8945ZM70.3027 43.0195H68.2695V48H66.5703V43.0195H64.5723V41.6602H70.3027V43.0195ZM73.7012 48.1172C72.7715 48.1172 72.0137 47.832 71.4277 47.2617C70.8457 46.6914 70.5547 45.9316 70.5547 44.9824V44.8184C70.5547 44.1816 70.6777 43.6133 70.9238 43.1133C71.1699 42.6094 71.5176 42.2227 71.9668 41.9531C72.4199 41.6797 72.9355 41.543 73.5137 41.543C74.3809 41.543 75.0625 41.8164 75.5586 42.3633C76.0586 42.9102 76.3086 43.6855 76.3086 44.6895V45.3809H72.2715C72.3262 45.7949 72.4902 46.127 72.7637 46.377C73.041 46.627 73.3906 46.752 73.8125 46.752C74.4648 46.752 74.9746 46.5156 75.3418 46.043L76.1738 46.9746C75.9199 47.334 75.5762 47.6152 75.1426 47.8184C74.709 48.0176 74.2285 48.1172 73.7012 48.1172ZM73.5078 42.9141C73.1719 42.9141 72.8984 43.0273 72.6875 43.2539C72.4805 43.4805 72.3477 43.8047 72.2891 44.2266H74.6445V44.0918C74.6367 43.7168 74.5352 43.4277 74.3398 43.2246C74.1445 43.0176 73.8672 42.9141 73.5078 42.9141ZM80.9492 48C80.8711 47.8477 80.8145 47.6582 80.7793 47.4316C80.3691 47.8887 79.8359 48.1172 79.1797 48.1172C78.5586 48.1172 78.043 47.9375 77.6328 47.5781C77.2266 47.2188 77.0234 46.7656 77.0234 46.2188C77.0234 45.5469 77.2715 45.0312 77.7676 44.6719C78.2676 44.3125 78.9883 44.1309 79.9297 44.127H80.709V43.7637C80.709 43.4707 80.6328 43.2363 80.4805 43.0605C80.332 42.8848 80.0957 42.7969 79.7715 42.7969C79.4863 42.7969 79.2617 42.8652 79.0977 43.002C78.9375 43.1387 78.8574 43.3262 78.8574 43.5645H77.1641C77.1641 43.1973 77.2773 42.8574 77.5039 42.5449C77.7305 42.2324 78.0508 41.9883 78.4648 41.8125C78.8789 41.6328 79.3438 41.543 79.8594 41.543C80.6406 41.543 81.2598 41.7402 81.7168 42.1348C82.1777 42.5254 82.4082 43.0762 82.4082 43.7871V46.5352C82.4121 47.1367 82.4961 47.5918 82.6602 47.9004V48H80.9492ZM79.5488 46.8223C79.7988 46.8223 80.0293 46.7676 80.2402 46.6582C80.4512 46.5449 80.6074 46.3945 80.709 46.207V45.1172H80.0762C79.2285 45.1172 78.7773 45.4102 78.7227 45.9961L78.7168 46.0957C78.7168 46.3066 78.791 46.4805 78.9395 46.6172C79.0879 46.7539 79.291 46.8223 79.5488 46.8223ZM88.877 43.0195H86.8438V48H85.1445V43.0195H83.1465V41.6602H88.877V43.0195ZM95.4395 44.8887C95.4395 45.8652 95.2168 46.6484 94.7715 47.2383C94.3301 47.8242 93.7324 48.1172 92.9785 48.1172C92.3379 48.1172 91.8203 47.8945 91.4258 47.4492V50.4375H89.7324V41.6602H91.3027L91.3613 42.2812C91.7715 41.7891 92.3066 41.543 92.9668 41.543C93.748 41.543 94.3555 41.832 94.7891 42.4102C95.2227 42.9883 95.4395 43.7852 95.4395 44.8008V44.8887ZM93.7461 44.7656C93.7461 44.1758 93.6406 43.7207 93.4297 43.4004C93.2227 43.0801 92.9199 42.9199 92.5215 42.9199C91.9902 42.9199 91.625 43.123 91.4258 43.5293V46.125C91.6328 46.543 92.002 46.752 92.5332 46.752C93.3418 46.752 93.7461 46.0898 93.7461 44.7656Z" fill="white"/>
</svg>
