<svg width="66" height="38" viewBox="0 0 66 38" fill="none" xmlns="http://www.w3.org/2000/svg">
<circle cx="46.9388" cy="18.9388" r="17.9388" stroke="#363636" stroke-width="2"/>
<rect x="1" y="1" width="64" height="36" rx="18" stroke="#363636" stroke-width="2"/>
<path d="M14.7004 12.2796C14.7128 12.4238 14.7847 12.5446 14.8961 12.6312C15.3605 12.9327 15.7866 13.324 16.1392 13.8002C16.4813 14.2433 16.7499 14.7713 16.9397 15.3676C17.367 16.7095 17.2663 18.1291 16.7572 19.3184C16.2482 20.5076 15.3212 21.4888 14.116 21.9645C13.6102 22.1642 13.0875 22.2586 12.5884 22.2691C12.0543 22.2748 11.5384 22.18 11.0556 21.979C10.8445 21.8945 10.617 22.0216 10.5411 22.2566C10.5036 22.402 10.5161 22.5462 10.588 22.667C11.3786 23.94 12.5277 24.8664 13.819 25.3451C15.0849 25.7965 16.4834 25.8226 17.8373 25.2882C19.4591 24.6481 20.7001 23.3378 21.3916 21.7223C22.0831 20.1067 22.2156 18.2083 21.6407 16.4026C21.1554 14.8786 20.231 13.6584 19.0837 12.8432C17.9163 12.0172 16.5069 11.6411 15.0868 11.81C14.8373 11.8153 14.6712 12.03 14.7004 12.2796ZM18.617 13.5868C19.6074 14.2775 20.4143 15.3389 20.8415 16.6807C21.3426 18.2545 21.2159 19.9082 20.6205 21.2994C20.025 22.6905 18.9511 23.8416 17.5376 24.3995C16.3622 24.8634 15.1538 24.8556 14.0535 24.4507C13.2948 24.1721 12.5981 23.7198 12.0185 23.1094C12.2086 23.1276 12.3986 23.1459 12.5982 23.1416C13.2025 23.1456 13.7995 23.0218 14.3947 22.7869C15.8081 22.229 16.8969 21.0721 17.4924 19.6809C18.0878 18.2897 18.2092 16.6195 17.7082 15.0457C17.4866 14.3499 17.1715 13.7284 16.768 13.1977C16.6251 13.0117 16.4821 12.8257 16.3296 12.6622C17.1406 12.7896 17.9247 13.0955 18.617 13.5868Z" fill="#363636"/>
<rect x="56" y="17.5" width="1.5" height="3" rx="0.75" transform="rotate(90 56 17.5)" fill="#363636"/>
<circle cx="47.5" cy="18.5" r="3" stroke="#363636" stroke-width="2"/>
<rect x="47" y="24" width="1.5" height="3" rx="0.75" fill="#363636"/>
<rect x="47" y="10" width="1.5" height="3" rx="0.75" fill="#363636"/>
<rect x="54.7284" y="24.519" width="1.5" height="3" rx="0.75" transform="rotate(132.3 54.7284 24.519)" fill="#363636"/>
<rect x="41.5769" y="25.198" width="1.5" height="3" rx="0.75" transform="rotate(-135.884 41.5769 25.198)" fill="#363636"/>
<rect x="52.5769" y="14.198" width="1.5" height="3" rx="0.75" transform="rotate(-135.884 52.5769 14.198)" fill="#363636"/>
<rect x="43.7285" y="13.519" width="1.5" height="3" rx="0.75" transform="rotate(132.3 43.7285 13.519)" fill="#363636"/>
<rect x="42" y="17.5" width="1.5" height="3" rx="0.75" transform="rotate(90 42 17.5)" fill="#363636"/>
</svg>
