<svg width="120" height="120" viewBox="0 0 120 120" fill="none" xmlns="http://www.w3.org/2000/svg">
<path d="M60 0C26.914 0 0 26.9166 0 60C0 93.0834 26.914 120 60 120C93.086 120 120 93.0834 120 60C120 26.9166 93.086 0 60 0ZM60 115C29.6728 115 4.99992 90.3272 4.99992 60C4.99992 29.6728 29.6728 4.99992 60 4.99992C90.3272 4.99992 115 29.6728 115 60C115 90.3272 90.3272 115 60 115Z" fill="#5671F6"/>
<path d="M83.8526 57.8979L48.8527 35.3979C48.086 34.8975 47.0948 34.8705 46.3038 35.3051C45.498 35.7445 45 36.5845 45 37.5V82.5C45 83.4155 45.498 84.2555 46.3038 84.6949C46.6748 84.8977 47.0899 85.0001 47.5001 85.0001C47.9688 85.0001 48.4425 84.8681 48.8527 84.6021L83.8526 62.1021C84.5655 61.6432 85.0001 60.8496 85.0001 60C85.0001 59.1504 84.5655 58.357 83.8526 57.8979ZM49.9999 77.9198V42.0802L77.876 60L49.9999 77.9198Z" fill="#5671F6"/>
</svg>
